<?xml version="1.0" encoding="UTF-8"?><svg id="uuid-0563d1e5-c7f8-450f-b1f9-2eca3320ff66" xmlns="http://www.w3.org/2000/svg" viewBox="0 0 1000 1000"><path d="m700,115h152.34c18.01,0,32.66,14.65,32.66,32.66v152.34h15v-152.34c0-26.32-21.34-47.66-47.66-47.66h-152.34v15Z" style="fill:#29ff6a;"/><path d="m115,300v-152.34c0-18.01,14.65-32.66,32.66-32.66h152.34v-15h-152.34c-26.32,0-47.66,21.34-47.66,47.66v152.34h15Z" style="fill:#29ff6a;"/><path d="m885,700v152.34c0,18.01-14.65,32.66-32.66,32.66h-152.34v15h152.34c26.32,0,47.66-21.34,47.66-47.66v-152.34h-15Z" style="fill:#29ff6a;"/><path d="m300,885h-152.34c-18.01,0-32.66-14.65-32.66-32.66v-152.34h-15v152.34c0,26.32,21.34,47.66,47.66,47.66h152.34v-15Z" style="fill:#29ff6a;"/></svg>