<?xml version="1.0" encoding="UTF-8"?><svg id="uuid-ccab6407-ada1-48fb-8180-05baa5ce25ad" xmlns="http://www.w3.org/2000/svg" viewBox="0 0 512 512"><path d="m512,377.8c-3.69,10.9-8.19,21.35-15.95,30.12-15.35,17.33-34.53,26.93-57.68,27.72-15.47.53-30.97.16-46.46.16-104.59,0-209.19.17-313.78-.09-33.66-.09-58.5-15.47-73.53-45.9C2.71,385.98,1.51,381.81,0,377.8c0-.67,0-1.33,0-2h512v2Z" style="fill:#606060;"/><path d="m31.91,345.53c3.89-51.42,22.64-96.3,56.69-134.39,33.91-37.94,76.31-61.61,126.37-71.35-10.13-26.15,1.91-46.65,15.92-56.22,15.3-10.45,37.18-9.83,51.57.94,15.41,11.52,23.66,33.06,14.49,55.01,69.52,14.8,122.32,52.69,156.86,114.96,15.61,28.14,24.08,58.58,26.25,91.05H31.91Zm239.06-224.6c.07-8.18-6.65-15.02-14.83-15.09-8.16-.07-15.03,6.67-15.1,14.84-.07,8.16,6.67,15.01,14.84,15.09,8.17.08,15.01-6.65,15.09-14.84Z" style="fill:#606060;"/></svg>