<?xml version="1.0" encoding="UTF-8"?><svg id="uuid-61bea7f4-7a94-4844-ac45-e5d4e4808196" xmlns="http://www.w3.org/2000/svg" viewBox="0 0 512 512"><path d="m511.56,319.92c-.57,3.74-1.23,7.46-1.71,11.21-7.72,60.1-47.51,114.74-106.92,140.19-17.84,7.64-36.49,12.09-55.9,13.52-42.02,3.1-80.53-7.13-115.02-31.12-38.96-27.1-63.81-64.16-73.2-110.72-9.52-47.19-1.14-91.49,24.73-132.29.79-1.25,1.72-2.42,2.5-3.52,10.39-1.19,35.41,6.39,47.05,15.36-31.07,40.41-39.74,84.8-21.2,132.88,13.75,35.66,39.36,60.49,75.04,74.13,71.5,27.33,151.04-12.44,172.04-86.11,11.43-40.11,5.07-77.91-19.12-111.93-24.07-33.86-57.65-51.67-99.15-55.1-13.3-16.48-28.93-30.54-46.88-42.72,9.29-2.58,18.21-3.64,27.15-4.2,30.76-1.93,60.41,2.95,88.16,16.58,53.41,26.23,86.4,68.69,99.09,126.82,1.31,5.98,1.68,12.17,2.53,18.25.18,1.29.55,2.55.84,3.83v24.95Z" style="fill:#606060;"/><path d="m171.35,438.03c13.39,16.34,28.77,30.45,46.44,42.38-60.77,17.1-159.12-6.95-201.7-100.7C.43,345.24-3.32,309.14,4.14,272.02c7.51-37.33,25.4-69.03,53.17-94.99,27.59-25.79,60.38-41.12,98.62-46.62-2.11-1.67-3.37-2.69-4.66-3.68-8.71-6.71-16.97-13.93-24.29-22.17-7.13-8.02-13.15-16.73-16.13-27.21-7.33-25.78,12.22-51.36,38.85-50.72,9.44.23,17.88,3.4,25.05,9.66,1.25,1.09,2.46,2.21,3.92,3.53,1.03-.88,2-1.7,2.96-2.53,11.72-10.28,25.13-13.51,39.87-8.41,14.73,5.09,23.51,15.88,26.24,31.19,1.59,8.92-.26,17.51-4.23,25.65-5.11,10.48-12.49,19.22-20.94,27.07-5.35,4.98-11.1,9.53-16.68,14.26-1.12.95-2.28,1.85-3.97,3.23,54.33,8.61,96.83,35.07,126.73,80.7,21.07,32.15,30.05,67.83,28.04,106.14-1.73,32.93-12,63.09-30.83,90.72-16.88-1.23-32.38-6.41-47.1-15.75,25.43-32.15,35.92-68.2,28.57-108.71-5.28-29.11-19.28-53.54-41.1-73.48-40.92-37.4-103.39-44.18-151.71-16.65-48.99,27.92-75.75,83.61-63.83,140.93,11.47,55.17,58.46,99.49,120.64,103.84Z" style="fill:#606060;"/></svg>