<?xml version="1.0" encoding="UTF-8"?><svg id="uuid-4e437341-65f1-4647-83b9-08d68c836f0f" xmlns="http://www.w3.org/2000/svg" viewBox="0 0 512 512"><path d="m222.24,80.61c.76-15.38,7.61-22.77,22.54-25.63,0-8.04,0-16.18,0-24.32,0-2.61-.1-5.22.04-7.83.38-7.08,5.1-11.94,11.36-11.81,6.09.12,10.72,4.81,10.96,11.66.25,7.3.07,14.61.08,21.92,0,3.45,0,6.91,0,10.68,6.68.77,12.39,2.97,16.7,7.95,4.2,4.85,5.7,10.62,5.56,17.19,67.98,12.93,119.78,48.79,153.05,109.6,24.26,44.35,30.83,92.02,20.78,141.49-19.95,98.18-106.1,170.08-208.28,169.46-105.41-.64-188.76-76.42-206.66-171.38-10.99-58.34.3-112.5,34.45-161.16,34.1-48.59,81.31-77.21,139.43-87.82Zm-21.62,175.65h-59.56c-2.65,22.21-2.68,44.17.01,66.25h59.55v-66.25Zm170.35,66.44c2.51-22.41,2.77-44.45-.1-66.34h-59.3v66.34h59.4Zm-140.76-144.44c-2.77,18.47-4.82,36.75-5.63,55.2h63.37c-1.94-18.67-3.84-36.88-5.74-55.2h-52Zm-5.67,167.05c1.01,18.75,2.8,37.07,5.73,55.23h51.55c2.76-18.45,4.72-36.64,5.64-55.23h-62.92Zm-87.87-167.05h-33.55c-12.31,16.89-21.76,35.01-27.85,55.11h45.65c5.35-18.73,10.52-36.81,15.75-55.11Zm300.13,55.31c-6.26-20.46-15.73-38.73-27.91-55.28h-33.55c5.27,18.47,10.46,36.69,15.77,55.28h45.69ZM103.33,400.89c5.85,0,11.39.02,16.93,0,5.6-.02,11.21.11,16.44-.08-5.38-18.9-10.53-36.99-15.8-55.49h-45.68c6.13,20.26,15.58,38.38,28.11,55.57Zm287.77-55.56c-5.32,18.64-10.51,36.86-15.77,55.29h33.54c12.31-16.96,21.78-35.07,27.88-55.29h-45.66Zm-217.64-189.73h37.16c4.49-16.1,8.91-31.92,13.43-48.1-22.03,10.62-37.62,27.5-50.59,48.1Zm.63,267.72c8.33,18.1,36.91,44.89,49.72,47.18-4.33-15.52-8.73-31.28-13.17-47.18h-36.55Zm127.24-267.83c9.21.95,33.3.54,36.57-.65-12.47-21.32-36.88-43.95-49.73-46.5,4.33,15.53,8.73,31.29,13.16,47.15Zm-13.4,315.89c22.01-10.54,37.56-27.47,50.58-48.06h-37.17c-4.44,15.89-8.84,31.66-13.42,48.06Z" style="fill:#606060;"/><path d="m0,117.01c0-4.66,2.25-7.95,6.32-9.96,2.48-1.22,5.08-2.25,7.71-3.14,6.05-2.04,9.91-6.15,12.02-12.08.87-2.45,1.83-4.88,2.9-7.25,1.98-4.4,5.55-6.77,10.28-6.7,4.7.06,8.27,2.38,10.15,6.88,1.2,2.88,2.35,5.79,3.52,8.68,1.92,4.77,5.3,8.07,10.06,9.98,2.9,1.16,5.85,2.21,8.69,3.49,4.38,1.97,6.74,5.5,6.71,10.27-.02,4.78-2.48,8.23-6.84,10.2-2.69,1.21-5.44,2.28-8.2,3.31-5.22,1.94-8.68,5.57-10.69,10.7-1.07,2.75-2.13,5.5-3.31,8.2-1.95,4.44-5.5,6.7-10.26,6.69-4.79-.01-8.23-2.43-10.2-6.81-.92-2.06-1.83-4.14-2.5-6.28-2.14-6.85-6.71-11.16-13.44-13.4-2.3-.76-4.58-1.65-6.75-2.73C2.09,125.01-.06,121.66,0,117.01Z" style="fill:#606060;"/><path d="m512,462.29c.04,4.11-2.19,7.43-6.23,9.47-2.47,1.25-5.06,2.31-7.69,3.17-6.07,2-9.96,6.06-12.09,12-.87,2.45-1.83,4.88-2.89,7.25-1.96,4.39-5.49,6.81-10.23,6.8-4.7-.02-8.3-2.3-10.21-6.78-1.22-2.87-2.34-5.79-3.51-8.68-1.92-4.76-5.26-8.1-10.01-10.04-2.89-1.18-5.84-2.23-8.69-3.49-4.39-1.94-6.79-5.43-6.81-10.2-.02-4.78,2.38-8.27,6.76-10.24,2.69-1.21,5.44-2.26,8.2-3.31,5.38-2.03,8.93-5.8,10.93-11.15,1.03-2.76,2.1-5.52,3.33-8.19,1.94-4.21,5.43-6.3,9.97-6.31,4.54-.02,8.04,2.06,9.99,6.27,1.24,2.67,2.34,5.41,3.37,8.17,2.06,5.54,5.7,9.4,11.38,11.33,2.79.95,5.52,2.11,8.16,3.39,4.11,2,6.26,5.35,6.27,10.54Z" style="fill:#606060;"/></svg>