<?xml version="1.0" encoding="UTF-8"?><svg id="uuid-fee1296f-b5ef-4f46-bd8c-cd1f0404f9cb" xmlns="http://www.w3.org/2000/svg" viewBox="0 0 512 512"><path d="m413.09,0c.82.5,1.62,1.03,2.47,1.48,7.43,3.99,10.37,11.65,7.25,19.52-1.71,4.33-3.76,8.52-5.64,12.79-.33.75-.56,1.54-.85,2.35,15.2,15.76,20.51,34.02,11.77,54.47-9,21.06-26.27,29.98-49.09,29.44-3.6,8.14-7.2,16.29-11.03,24.94h6.06c31.67,0,63.34,0,95.01.01,1.99,0,4.04-.09,5.97.31,10.95,2.26,15.66,14.73,8.86,23.84-3.78,5.07-8.08,9.75-12.17,14.58-52.21,61.69-104.41,123.39-156.7,185.01-2.74,3.23-4.16,6.38-4,10.7.32,8.49.25,17,.02,25.49-.1,3.45.96,5.86,3.39,8.31,23.28,23.39,46.44,46.9,69.62,70.38,1.4,1.42,2.85,2.83,4.02,4.44,3.43,4.68,4.07,9.8,1.65,15.1-2.42,5.28-6.73,8.12-12.47,8.74-1.48.16-3,.07-4.5.07-51.17,0-102.34.02-153.51-.03-2.63,0-5.4-.11-7.87-.91-9.52-3.07-13.22-14.07-7.64-22.35,1.11-1.64,2.54-3.08,3.94-4.5,23.29-23.61,46.57-47.24,69.97-70.74,2.57-2.58,3.66-5.12,3.55-8.74-.25-8.83-.21-17.67-.01-26.49.08-3.4-.95-5.92-3.15-8.5-22.91-26.89-45.7-53.88-68.52-80.85-33.27-39.3-66.52-78.61-99.81-117.9-3.03-3.57-4.95-7.49-4.54-12.29.61-7.19,6.42-12.97,13.73-13.6,1.82-.16,3.66-.08,5.5-.08,68.17,0,136.34,0,204.51,0h6.23c5.51-12.43,10.96-24.72,16.51-37.23-16.09-17.28-20.81-36.83-9.73-58.16,9.51-18.32,25.82-26.07,46.72-25.65,1.42-3.09,3.17-6.28,4.38-9.67C395.22,7.93,398.82,2.87,405.09,0,407.76,0,410.42,0,413.09,0ZM152.88,175.22c.98,1.32,1.61,2.26,2.33,3.12,7.74,9.15,15.57,18.22,23.18,27.48,2.01,2.45,4.12,3.25,7.23,3.24,38.96-.1,77.91-.06,116.87-.07,1.47,0,2.93-.13,4.38-.19,4.97-11.26,9.82-22.26,14.81-33.58h-168.81Zm186.89,33.43c1.42.15,2.37.33,3.32.33,21.5.02,42.99-.04,64.49.08,2.67.01,4.27-.99,5.87-2.91,7.79-9.34,15.7-18.58,23.55-27.87.72-.85,1.32-1.82,2.16-2.99h-84.66c-4.94,11.18-9.76,22.11-14.73,33.36Z" style="fill:#606060;"/><path d="m220.15,114.99c-2,0-3.76,0-5.53,0-31.49,0-62.97-.07-94.46.03-18.61.06-35.13,11.04-41.75,28.09-6.53,16.8-3.79,32.43,7.66,46.31,10.92,13.23,22.13,26.22,33.21,39.31,7.86,9.28,15.72,18.55,23.57,27.83,1.07,1.26,2.07,2.59,3.12,3.91-9.22,4.34-33.66,2.73-48.46-2.14-28.17-9.26-49.22-26.95-62.12-53.59-25.85-53.34-1.8-116.45,52.44-139.49,55.81-23.71,112.78,6.27,132.31,49.73Z" style="fill:#606060;"/></svg>