<?xml version="1.0" encoding="UTF-8"?><svg id="uuid-7ebb3cff-f963-44a0-8160-a74f2b53fec5" xmlns="http://www.w3.org/2000/svg" viewBox="0 0 11 11"><path d="m0,.57v3.86c0,.31.25.57.57.57h3.86c.31,0,.57-.25.57-.57V.57c0-.31-.25-.57-.57-.57H.57c-.31,0-.57.25-.57.57Zm4,3.43H1V1h3v3Z" style="fill:#606060;"/><path d="m0,6.57v3.86c0,.31.25.57.57.57h3.86c.31,0,.57-.25.57-.57v-3.86c0-.31-.25-.57-.57-.57H.57c-.31,0-.57.25-.57.57Zm4,3.43H1v-3h3v3Z" style="fill:#606060;"/><path d="m6,.57v3.86c0,.31.25.57.57.57h3.86c.31,0,.57-.25.57-.57V.57c0-.31-.25-.57-.57-.57h-3.86c-.31,0-.57.25-.57.57Zm4,3.43h-3V1h3v3Z" style="fill:#606060;"/><rect x="2" y="2" width="1" height="1" style="fill:#606060;"/><rect x="8" y="2" width="1" height="1" style="fill:#606060;"/><rect x="2" y="8" width="1" height="1" style="fill:#606060;"/><rect x="6" y="6" width="1" height="1" style="fill:#606060;"/><rect x="8" y="6" width="1" height="1" style="fill:#606060;"/><rect x="10" y="6" width="1" height="1" style="fill:#606060;"/><rect x="6" y="8" width="1" height="1" style="fill:#606060;"/><rect x="8" y="8" width="1" height="1" style="fill:#606060;"/><rect x="10" y="8" width="1" height="1" style="fill:#606060;"/><rect x="6" y="10" width="1" height="1" style="fill:#606060;"/><rect x="8" y="10" width="1" height="1" style="fill:#606060;"/><rect x="10" y="10" width="1" height="1" style="fill:#606060;"/><rect x="7" y="7" width="1" height="1" style="fill:#606060;"/><rect x="9" y="7" width="1" height="1" style="fill:#606060;"/><rect x="7" y="9" width="1" height="1" style="fill:#606060;"/><rect x="9" y="9" width="1" height="1" style="fill:#606060;"/></svg>