<?xml version="1.0" encoding="UTF-8"?>
<svg id="Capa_1" data-name="Capa 1" xmlns="http://www.w3.org/2000/svg" viewBox="0 0 546.68 127.57">
  <defs>
    <style>
      .cls-1 {
        fill: #e4428c;
        fill-rule: evenodd;
      }
    </style>
  </defs>
  <path class="cls-1" d="M.02.15h8.81v90.05s0,6.48,5.81,6.48h47.33v9.76H10.49s-10.49-.01-10.49-11.64S.02.15.02.15H.02Z"/>
  <path class="cls-1" d="M12.18.15h8.78v77.23s-.62,6,5.09,5.98c28.3-.03,35.86,0,35.86,0v9.65H17.34s-5.2-.4-5.16-5.73c.03-3.78,0-87.14,0-87.14h0Z"/>
  <path class="cls-1" d="M24.28.15h8.83v65.33s-.49,4.45,3.7,4.45h25.16l-.04,9.7H28.04s-3.76-.75-3.76-5.26V.15h0Z"/>
  <path class="cls-1" d="M36.41.15h8.84v52.73s-.56,3.74,3.29,3.74h13.42v9.65h-20.42c-3.64,0-5.14-1.1-5.14-4.82V.15h0Z"/>
  <path class="cls-1" d="M110.41,106.33h-8.82l.05-90.05s0-6.48-5.81-6.48c-5.44,0-47.32-.01-47.32-.01V0l51.47.04s10.49.03,10.49,11.64c-.01,11.48-.06,94.66-.06,94.66h0Z"/>
  <path class="cls-1" d="M98.24,106.33h-8.78l.03-77.23s.61-6-5.11-5.98c-28.27.01-35.84-.04-35.84-.04v-9.63s44.58.01,44.58.01c0,0,5.21.4,5.17,5.73-.03,3.78-.05,87.14-.05,87.14h0Z"/>
  <path class="cls-1" d="M86.14,106.33h-8.84s.03-65.33.03-65.33c0,0,.5-4.45-3.69-4.45-7.5,0-25.16-.01-25.16-.01l.05-9.7h33.88s3.77.77,3.77,5.27c0,4.13-.03,74.23-.03,74.23h0Z"/>
  <path class="cls-1" d="M74,106.32h-8.83l.03-52.72s.55-3.74-3.3-3.74h-13.42v-9.65h20.42c3.65.01,5.14,1.12,5.14,4.82,0,4.06-.05,61.3-.05,61.3h0Z"/>
  <polygon class="cls-1" points="199.86 22.08 208.87 22.08 208.87 32.21 199.86 32.21 199.86 22.08 199.86 22.08"/>
  <polygon class="cls-1" points="199.86 44.18 208.87 44.18 208.87 106.45 199.86 106.45 199.86 44.18 199.86 44.18"/>
  <polygon class="cls-1" points="519.31 21.97 528.34 21.97 528.34 106.45 519.31 106.45 519.31 21.97 519.31 21.97"/>
  <polygon class="cls-1" points="259.2 44.18 241.03 94.3 222.85 44.18 212.56 44.18 235.14 106.45 246.91 106.45 269.49 44.18 259.2 44.18 259.2 44.18"/>
  <path class="cls-1" d="M174.41,96.55c-3.04,0-5.34-2.68-5.34-6.02V22.08h-9.02v70.07c0,7.87,5.68,14.24,12.87,14.24h23.66v-9.83h-22.17Z"/>
  <path class="cls-1" d="M345.47,54.22c-3.04,0-5.34,2.68-5.34,6.02v46.45h-9.02v-48.09c0-7.85,5.68-14.23,12.86-14.23h9.49v9.85h-7.99Z"/>
  <path class="cls-1" d="M326.35,76.02v-1.91c0-17.96-13.37-32.55-29.79-32.55s-29.76,14.6-29.76,32.55,13.34,32.54,29.76,32.54c13.86,0,25.69-10.18,28.94-24.83h-8.74c-3,9.38-11.08,15.7-20.2,15.7-11.07,0-20.26-9.12-21.35-21.5h51.14ZM276.18,66.87c3.01-9.87,11.28-16.19,20.37-16.19s17.35,6.32,20.35,16.19h-40.72Z"/>
  <path class="cls-1" d="M484.76,41.2c-10.81,0-20.31,6.25-25.61,15.64-5.3-9.38-14.79-15.64-25.61-15.64s-20.31,6.25-25.6,15.64c-5.32-9.38-14.8-15.64-25.62-15.64-16.63,0-30.11,14.73-30.11,32.91v53.46h9.11v-29.91c5.41,5.77,12.82,9.34,21.01,9.34,10.81,0,20.3-6.25,25.62-15.63,5.29,9.38,14.78,15.63,25.6,15.63s20.31-6.25,25.61-15.63c5.31,9.38,14.8,15.63,25.61,15.63,16.63,0,30.1-14.73,30.1-32.89s-13.47-32.91-30.1-32.91h0ZM382.32,97.17c-11.63,0-21.1-10.35-21.1-23.06s9.47-23.07,21.1-23.07,21.08,10.35,21.08,23.07-9.47,23.06-21.08,23.06h0ZM433.53,97.17c-11.62,0-21.08-10.35-21.08-23.06s9.47-23.07,21.08-23.07,21.1,10.35,21.1,23.07-9.47,23.06-21.1,23.06h0ZM484.76,97.17c-11.62,0-21.08-10.35-21.08-23.06s9.47-23.07,21.08-23.07,21.1,10.35,21.1,23.07-9.47,23.06-21.1,23.06h0Z"/>
  <path class="cls-1" d="M539.47,36.77c-3.98,0-7.18-3.51-7.18-7.89s3.2-7.85,7.18-7.85,7.21,3.51,7.21,7.85-3.22,7.89-7.21,7.89h0ZM539.47,22.34c-3.33,0-6.01,2.93-6.01,6.54s2.68,6.59,6.01,6.59,6.04-2.95,6.04-6.59-2.7-6.54-6.04-6.54h0ZM536.33,24.78h3.41c1.93,0,2.56,1.32,2.56,2.23,0,1.37-.89,2.36-2.21,2.44v.05c.67.25,1.16.96,1.8,2.1l.94,1.65h-1.53l-.69-1.32c-.98-1.91-1.34-2.26-2.32-2.26h-.73v3.58h-1.25v-8.47h0ZM539.38,28.48c.96,0,1.6-.4,1.6-1.29,0-.76-.57-1.25-1.37-1.25h-2.03v2.54h1.8Z"/>
</svg>