<?xml version="1.0" encoding="utf-8"?>
<!-- Generator: Adobe Illustrator 27.2.0, SVG Export Plug-In . SVG Version: 6.00 Build 0)  -->
<svg version="1.1" id="uuid-26c57132-af43-4e75-b0f7-6b098bdab028"
	 xmlns="http://www.w3.org/2000/svg" xmlns:xlink="http://www.w3.org/1999/xlink" x="0px" y="0px" viewBox="0 0 500 320"
	 style="enable-background:new 0 0 500 320;" xml:space="preserve">
<style type="text/css">
	.st0{fill:#FFFFFF;}
</style>
<g>
	<path class="st0" d="M41.2,248.8H25.6l-3.3,7.4h-3.1L32,228.2h2.9l12.8,27.9h-3.1L41.2,248.8L41.2,248.8z M40.1,246.3l-6.7-15
		l-6.7,15C26.7,246.3,40.1,246.3,40.1,246.3z"/>
	<path class="st0" d="M57.2,228.2h3v25.4h15.6v2.6H57.2C57.2,256.2,57.2,228.2,57.2,228.2z"/>
	<path class="st0" d="M105.4,253.6v2.6H85.7v-27.9h19.1v2.6H88.6v9.9H103v2.5H88.6v10.4L105.4,253.6L105.4,253.6z"/>
	<path class="st0" d="M120.3,256.5c-1.6,0-3.1-0.3-4.5-1c-1.4-0.7-2.4-1.7-3.3-3l1.7-2c1.6,2.3,3.6,3.4,6.1,3.4
		c3.4,0,5.2-2.1,5.2-6.2v-16.9h-10.2v-2.6h13.1v19.4c0,2.9-0.7,5.1-2.1,6.6C125,255.7,123,256.5,120.3,256.5L120.3,256.5z"/>
	<path class="st0" d="M159.7,248.8h-15.6l-3.3,7.4h-3.1l12.8-27.9h2.9l12.8,27.9h-3.1L159.7,248.8L159.7,248.8z M158.6,246.3
		l-6.7-15l-6.7,15H158.6z"/>
	<path class="st0" d="M199.1,228.2v27.9h-2.5l-17.9-22.7v22.7h-3v-27.9h2.4l18,22.7v-22.7H199.1L199.1,228.2z"/>
	<path class="st0" d="M213.1,228.2h11.4c2.9,0,5.6,0.6,7.8,1.8c2.3,1.2,4,2.8,5.3,4.9c1.2,2.1,1.9,4.5,1.9,7.2s-0.6,5.1-1.9,7.3
		c-1.2,2.1-3,3.8-5.3,4.9c-2.3,1.2-4.9,1.8-7.8,1.8h-11.4V228.2z M224.3,253.6c2.4,0,4.6-0.5,6.4-1.4c1.8-1,3.2-2.3,4.2-4
		c1-1.7,1.5-3.7,1.5-5.9s-0.5-4.2-1.5-5.9c-1-1.7-2.4-3.1-4.2-4c-1.8-1-4-1.5-6.4-1.5h-8.2v22.8L224.3,253.6L224.3,253.6z"/>
	<path class="st0" d="M270.1,256.2l-6.4-9c-0.7,0.1-1.5,0.1-2.2,0.1H254v8.9h-3v-27.9h10.4c3.6,0,6.4,0.9,8.4,2.6c2,1.7,3,4.1,3,7
		c0,2.2-0.5,4-1.6,5.5c-1.1,1.5-2.7,2.6-4.7,3.2l6.8,9.6L270.1,256.2L270.1,256.2z M261.4,244.8c2.8,0,4.9-0.6,6.3-1.8
		c1.5-1.2,2.2-2.9,2.2-5.1s-0.7-4-2.2-5.2c-1.5-1.2-3.6-1.8-6.3-1.8H254v14L261.4,244.8L261.4,244.8z"/>
	<path class="st0" d="M302.3,248.8h-15.6l-3.3,7.4h-3.1l12.8-27.9h2.9l12.8,27.9h-3.1L302.3,248.8L302.3,248.8z M301.2,246.3
		l-6.7-15l-6.7,15H301.2z"/>
	<path class="st0" d="M353.7,256.6l-3.9-4c-2.4,2.6-5.5,3.8-9.4,3.8c-1.8,0-3.4-0.3-4.8-0.9c-1.4-0.6-2.5-1.4-3.3-2.5
		c-0.8-1.1-1.2-2.3-1.2-3.7c0-1.7,0.5-3.2,1.6-4.5c1.1-1.3,2.9-2.7,5.5-4.2c-1.4-1.4-2.3-2.6-2.8-3.5c-0.5-1-0.7-2-0.7-3.1
		c0-1.8,0.6-3.2,1.9-4.3c1.3-1.1,3-1.6,5.2-1.6c2,0,3.6,0.5,4.7,1.5c1.2,1,1.8,2.3,1.8,4.1c0,1.4-0.5,2.6-1.4,3.7
		c-0.9,1.1-2.5,2.3-4.8,3.6l7.7,7.9c0.9-1.5,1.5-3.3,1.9-5.4l2.3,0.7c-0.5,2.5-1.3,4.6-2.5,6.4l4,4.1L353.7,256.6L353.7,256.6z
		 M341.7,230.2c-1.4,0-2.5,0.4-3.3,1c-0.8,0.7-1.2,1.6-1.2,2.8c0,0.8,0.2,1.6,0.6,2.4c0.4,0.7,1.3,1.7,2.5,3c2-1.2,3.4-2.2,4.2-3
		c0.8-0.8,1.2-1.7,1.2-2.8s-0.4-1.9-1.1-2.5C343.9,230.5,343,230.2,341.7,230.2L341.7,230.2z M340.6,254.1c3.1,0,5.6-1.1,7.5-3.1
		l-8.4-8.6c-2.2,1.2-3.7,2.4-4.6,3.4c-0.8,1-1.2,2.1-1.2,3.4c0,1.5,0.6,2.7,1.9,3.7C337,253.6,338.6,254.1,340.6,254.1L340.6,254.1z
		"/>
	<path class="st0" d="M380.7,228.2h3v25.4h15.6v2.6h-18.6V228.2z"/>
	<path class="st0" d="M420.4,256.5c-3.6,0-6.4-1-8.5-3.1c-2-2.1-3-5.1-3-9.1v-16h2.9v15.9c0,3.2,0.7,5.7,2.2,7.3
		c1.5,1.6,3.6,2.4,6.3,2.4s4.9-0.8,6.4-2.4c1.5-1.6,2.2-4,2.2-7.3v-15.9h2.9v16c0,4-1,7-3,9.1C426.8,255.4,424,256.5,420.4,256.5
		L420.4,256.5z"/>
	<path class="st0" d="M445.7,228.2h3v27.9h-3V228.2z"/>
	<path class="st0" d="M470.4,256.5c-2.1,0-4.1-0.3-6-1c-1.9-0.7-3.4-1.6-4.4-2.6l1.2-2.3c1,1,2.3,1.8,4,2.5c1.7,0.6,3.4,0.9,5.2,0.9
		c2.5,0,4.4-0.4,5.6-1.4c1.3-0.9,1.9-2.1,1.9-3.6c0-1.1-0.4-2-1-2.7c-0.7-0.7-1.5-1.2-2.5-1.5c-1-0.4-2.4-0.8-4.1-1.2
		c-2.1-0.5-3.8-1.1-5-1.5c-1.2-0.5-2.3-1.2-3.2-2.2c-0.9-1-1.3-2.4-1.3-4.1c0-1.4,0.4-2.7,1.1-3.9c0.8-1.2,1.9-2.1,3.5-2.8
		c1.5-0.7,3.5-1,5.7-1c1.6,0,3.2,0.2,4.7,0.7c1.5,0.4,2.9,1.1,4,1.8l-1,2.4c-1.2-0.8-2.4-1.4-3.7-1.8c-1.3-0.4-2.6-0.6-3.9-0.6
		c-2.5,0-4.3,0.5-5.5,1.4c-1.2,0.9-1.8,2.2-1.8,3.7c0,1.1,0.3,2,1,2.7c0.7,0.7,1.5,1.2,2.5,1.6c1,0.4,2.4,0.7,4.1,1.2
		c2,0.5,3.7,1,5,1.5c1.3,0.5,2.4,1.2,3.2,2.2c0.9,1,1.3,2.4,1.3,4.1c0,1.4-0.4,2.7-1.1,3.9c-0.8,1.2-1.9,2.1-3.5,2.8
		C474.6,256.1,472.7,256.5,470.4,256.5L470.4,256.5z"/>
</g>
<g>
	<path class="st0" d="M160.1,299.5c-1.5,0-2.8-0.2-3.9-0.7c-1.1-0.5-2-1.2-2.6-2c-0.6-0.9-0.9-1.9-0.9-3s0.3-2.1,0.9-3
		s1.4-1.6,2.5-2c-0.9-0.5-1.6-1.1-2.2-1.9s-0.8-1.7-0.8-2.8c0-1.1,0.3-2.1,0.8-2.9c0.6-0.9,1.4-1.5,2.4-2c1.1-0.5,2.3-0.7,3.6-0.7
		s2.6,0.2,3.6,0.7c1,0.5,1.8,1.1,2.4,2c0.6,0.8,0.9,1.8,0.9,2.9c0,1-0.3,1.9-0.8,2.8s-1.2,1.5-2.1,1.9c1.1,0.5,1.9,1.2,2.5,2
		c0.6,0.9,0.9,1.9,0.9,3c0,1.2-0.3,2.2-0.9,3c-0.6,0.9-1.5,1.6-2.6,2C162.8,299.3,161.5,299.5,160.1,299.5L160.1,299.5z
		 M155.2,293.5c0,1.1,0.4,2,1.3,2.7c0.9,0.7,2.1,1,3.6,1s2.6-0.3,3.5-1c0.9-0.7,1.4-1.6,1.4-2.7s-0.5-2-1.4-2.7
		c-0.9-0.7-2.1-1-3.5-1s-2.7,0.4-3.6,1C155.6,291.5,155.2,292.4,155.2,293.5z M155.7,284.1c0,1,0.4,1.9,1.2,2.5c0.8,0.6,1.9,1,3.2,1
		s2.4-0.3,3.2-1c0.8-0.6,1.2-1.5,1.2-2.5s-0.4-1.9-1.2-2.5c-0.8-0.7-1.9-1-3.2-1s-2.4,0.3-3.2,1
		C156.1,282.2,155.7,283.1,155.7,284.1z"/>
	<path class="st0" d="M187.7,299.4c-0.6,0-1.1-0.2-1.4-0.5s-0.6-0.8-0.6-1.4s0.2-1,0.6-1.4c0.4-0.4,0.8-0.5,1.4-0.5s1.1,0.2,1.4,0.5
		c0.4,0.4,0.6,0.8,0.6,1.4s-0.2,1-0.6,1.4S188.3,299.4,187.7,299.4z"/>
	<path class="st0" d="M212.1,299.2v-14.7h-4.7V282h2.3c0.9,0,1.5-0.1,1.9-0.4c0.4-0.2,0.6-0.7,0.8-1.4l0.3-1.5h2v20.4L212.1,299.2
		L212.1,299.2z"/>
	<path class="st0" d="M231.7,299.5c-1.7,0-3.1-0.4-4.4-1.3c-1.2-0.9-2.2-2.1-2.9-3.6c-0.7-1.6-1-3.5-1-5.6s0.3-4,1-5.6
		c0.7-1.6,1.6-2.8,2.9-3.7c1.2-0.9,2.7-1.3,4.4-1.3s3.2,0.4,4.4,1.3c1.2,0.9,2.2,2.1,2.8,3.7c0.7,1.6,1,3.5,1,5.6s-0.3,4.1-1,5.6
		c-0.7,1.6-1.6,2.8-2.8,3.6C234.8,299.1,233.4,299.5,231.7,299.5z M225.9,289c0,2.5,0.5,4.5,1.5,5.9c1,1.5,2.4,2.2,4.2,2.2
		s3.2-0.7,4.2-2.2c1-1.5,1.5-3.5,1.5-5.9s-0.5-4.5-1.5-5.9c-1-1.4-2.4-2.2-4.2-2.2s-3.1,0.7-4.2,2.2
		C226.4,284.5,225.9,286.5,225.9,289z"/>
	<path class="st0" d="M140.5,299.2v-14.7h-4.7V282h2.3c0.9,0,1.5-0.1,1.9-0.4c0.4-0.2,0.6-0.7,0.8-1.4l0.3-1.5h2v20.4L140.5,299.2
		L140.5,299.2z"/>
	<path class="st0" d="M260.5,299.4c-0.6,0-1.1-0.2-1.4-0.5s-0.5-0.8-0.5-1.4s0.2-1,0.5-1.4c0.4-0.4,0.8-0.5,1.4-0.5s1.1,0.2,1.4,0.5
		c0.4,0.4,0.5,0.8,0.5,1.4s-0.2,1-0.5,1.4S261.1,299.4,260.5,299.4z"/>
	<path class="st0" d="M281.2,299.2v-1.9l8.5-7.8c1-0.9,1.7-1.7,2.2-2.5c0.5-0.8,0.7-1.6,0.7-2.5c0-1.2-0.4-2.1-1.2-2.8
		c-0.8-0.7-1.8-1.1-3-1.1c-1.3,0-2.4,0.4-3.2,1.2c-0.8,0.8-1.2,1.9-1.2,3.3h-2.4c0-1.4,0.3-2.5,0.9-3.6c0.6-1,1.4-1.8,2.4-2.4
		c1-0.6,2.2-0.8,3.5-0.8s2.5,0.3,3.5,0.8c1,0.5,1.8,1.2,2.4,2.2c0.6,0.9,0.9,2,0.9,3.1s-0.3,2.3-0.9,3.5c-0.6,1.2-1.5,2.3-2.8,3.5
		l-5.9,5.4h10v2.4L281.2,299.2L281.2,299.2z"/>
	<path class="st0" d="M311.8,299.5c-1.7,0-3.1-0.4-4.4-1.3c-1.2-0.9-2.2-2.1-2.9-3.6c-0.7-1.6-1-3.5-1-5.6s0.3-4,1-5.6
		c0.7-1.6,1.6-2.8,2.9-3.7c1.2-0.9,2.7-1.3,4.4-1.3s3.2,0.4,4.4,1.3c1.2,0.9,2.2,2.1,2.8,3.7c0.7,1.6,1,3.5,1,5.6s-0.3,4.1-1,5.6
		c-0.7,1.6-1.6,2.8-2.8,3.6C315,299.1,313.5,299.5,311.8,299.5z M306.1,289c0,2.5,0.5,4.5,1.5,5.9c1,1.5,2.4,2.2,4.2,2.2
		s3.2-0.7,4.2-2.2c1-1.5,1.5-3.5,1.5-5.9s-0.5-4.5-1.5-5.9c-1-1.4-2.4-2.2-4.2-2.2s-3.1,0.7-4.2,2.2
		C306.6,284.5,306.1,286.5,306.1,289z"/>
	<path class="st0" d="M327.9,299.2v-1.9l8.5-7.8c1-0.9,1.7-1.7,2.2-2.5c0.5-0.8,0.7-1.6,0.7-2.5c0-1.2-0.4-2.1-1.2-2.8
		c-0.8-0.7-1.8-1.1-3-1.1c-1.3,0-2.4,0.4-3.2,1.2c-0.8,0.8-1.2,1.9-1.2,3.3h-2.4c0-1.4,0.3-2.5,0.9-3.6c0.6-1,1.4-1.8,2.4-2.4
		c1-0.6,2.2-0.8,3.5-0.8s2.5,0.3,3.5,0.8c1,0.5,1.8,1.2,2.4,2.2c0.6,0.9,0.9,2,0.9,3.1s-0.3,2.3-0.9,3.5c-0.6,1.2-1.5,2.3-2.8,3.5
		l-5.9,5.4h10v2.4L327.9,299.2L327.9,299.2z"/>
	<path class="st0" d="M357.2,299.5c-1.4,0-2.5-0.3-3.6-0.8c-1-0.5-1.8-1.2-2.4-2.2c-0.6-1-0.9-2.1-1-3.3h2.5
		c0.1,1.2,0.5,2.1,1.3,2.8c0.8,0.7,1.8,1,3.1,1c1.3,0,2.4-0.4,3.2-1.1c0.8-0.8,1.2-1.8,1.2-3s-0.4-2.2-1.2-2.9s-1.9-1.1-3.2-1.1
		h-6.4l0.8-10.2h11.7v2.4h-9.3l-0.4,5.4h3.7c1.4,0,2.6,0.3,3.6,0.8c1,0.5,1.9,1.3,2.5,2.3c0.6,1,0.9,2.1,0.9,3.4s-0.3,2.4-0.9,3.4
		c-0.6,1-1.4,1.7-2.5,2.3S358.6,299.5,357.2,299.5L357.2,299.5z"/>
</g>
<g>
	<g>
		<path class="st0" d="M419.9,145.8l-10,21.6c-2.7,5.8-5.6,10.3-8.6,13.4c-3,3.1-7.6,4.6-14,4.6h-39.6V39c0-3.4,0.6-6.2,1.8-8.3
			c1.2-2.1,3.4-3.8,6.7-5l4.6-2V21h-65.5v2.6l5.4,2c3.4,1.2,5.6,2.8,6.7,4.9c1,2,1.5,4.8,1.5,8.2v71.4c3.1-3,7.2-4.6,11.6-4.6
			c9.5,0,17.3,7.7,17.3,17.2c0,7.4-4.5,12.1-6.9,14.6c-2.8,3.1-10.5,11.2-21.7,11.2c-0.1,0-0.2,0-0.3,0v24.2c0,3.4-0.5,6.1-1.4,8.1
			c-0.9,2-3.2,3.6-6.8,5l-5.4,2.1v2.6h124.8l2.3-44.7L419.9,145.8L419.9,145.8z"/>
		<path class="st0" d="M228,181.9c-1.7-2-3.2-4.9-4.6-8.6l-0.4-1c-5.1-2.1-9.9-5-14.3-8.7c-10.6-9.1-16.1-21.3-16.1-35.4
			c0-9.2,2.3-17.9,6.7-25.6l-27.9-81.9h-21.8L96.6,172.2c-1.2,3.6-2.7,6.4-4.6,8.4c-1.9,2-4.5,3.6-8,5l-6.4,2.3v2.6H113v-2.6
			l-5.7-2.3c-3.6-1.4-5.6-3.2-6.1-5.4c-0.4-2.2,0-5.2,1.2-9l12.3-36.2h57l12.1,37c1,3.4,1.1,6.4,0.4,8.9c-0.8,2.5-2.9,4.4-6.5,5.8
			l-3.9,1.3v2.6H239v-2.6l-3.1-1C232.4,185.5,229.7,183.8,228,181.9L228,181.9z M116.6,129.9L144.3,50l25.9,79.9
			C170.3,129.9,116.6,129.9,116.6,129.9z"/>
	</g>
	<path class="st0" d="M249.9,90.3c3.5,4.6,6.9,6.9,10,6.9c2.1,0,3.2-1,3.2-3C263.1,91.6,258.7,90.3,249.9,90.3L249.9,90.3z
		 M268.9,92.6c0,2-1,3.7-3.1,5c-2.1,1.3-4.6,1.9-7.5,1.9c-2.6,0-5.2-0.8-7.7-2.5c-2.6-1.7-4.4-3.8-5.7-6.3
		c-9.3,1.6-16.1,5.6-20.5,12.1c-4.4,6.5-6.6,13.3-6.6,20.6c0,8.9,3.4,16.3,10.1,22.1c6.7,5.8,14.4,8.7,23,8.7
		c9.4,0,17.1-3.1,22.9-9.4c5.9-6.2,9.5-13.6,10.9-22.1c-1.5-0.9-3.9-2.5-6.9-4.8c-3.1-2.3-5.6-4-7.7-5c-2-1-4.1-1.5-6.2-1.5
		c-1.5,0-2.9,0.6-4,1.9c-1.1,1.2-1.6,2.7-1.6,4.4s0.9,3.3,2.7,4.9c1.8,1.5,2.7,2.4,2.7,2.5c0,0.5-1.1,0.7-3.3,0.7h-0.9
		c-5.1,0-7.6-2.4-7.6-7.2c0-2.3,1.3-4.2,4-5.9c2.7-1.6,5.8-2.5,9.4-2.5c6.3,0,14.6,3.1,24.8,9.2c10.2,6.1,17.4,9.1,21.6,9.1
		c2.1,0,4.3-1.1,6.5-3.3c0.5-0.5,0.9-0.9,1.2-1.4c0.4-0.5,0.7-0.8,0.8-1.2l0.4-0.5c0.3,0,0.5,0.2,0.5,0.5c0,0.5-0.8,1.5-2.3,3
		c-3.6,4-6.7,6-9.5,6c-5.3,0-11.4-1.8-18.3-5.5c-2.5,7.2-8.3,14.6-17.6,22c-9.3,7.4-19.4,11.1-30.3,11.1c-8.8,0-16.6-2.9-23.4-8.7
		c-6.8-5.8-10.2-13.3-10.2-22.6s3.4-17.8,10.1-24.9c6.7-7,14.8-12.1,24.2-15.2c-0.6-1.7-0.9-3.9-0.9-6.7c0-8.3,3.2-15,9.5-20.1
		c6.3-5.1,12.9-7.7,19.7-7.7c4.9,0,9.5,1,13.8,3.1c4.2,2.1,6.4,4.7,6.4,7.8l-2.3,4.1c-1.4,2.5-2.2,3.7-2.3,3.7
		c-0.3,0-0.5-0.2-0.5-0.4c0-3.7-2.1-6.9-6.3-9.6c-4.2-2.7-8.3-4.1-12.5-4.1c-6.8,0-12.2,1.9-16.4,5.8c-4.1,3.9-6.1,8.8-6.1,14.8
		c0,2.6,0.6,5.3,1.9,8.1c4.3-0.8,8-1.1,10.9-1.1c2.6,0,5,0.6,7.1,1.7C267.8,88.5,268.9,90.3,268.9,92.6L268.9,92.6z"/>
</g>
</svg>
