<?xml version="1.0" encoding="UTF-8"?>
<svg id="uuid-26c57132-af43-4e75-b0f7-6b098bdab028" xmlns="http://www.w3.org/2000/svg" version="1.1" viewBox="0 0 500 320">
  <!-- Generator: Adobe Illustrator 29.7.1, SVG Export Plug-In . SVG Version: 2.1.1 Build 8)  -->
  <defs>
    <style>
      .st0 {
        fill: #fff;
      }
    </style>
  </defs>
  <g>
    <path class="st0" d="M41.2,248.8h-15.6l-3.3,7.4h-3.1l12.8-28h2.9l12.8,27.9h-3.1l-3.4-7.3h0ZM40.1,246.3l-6.7-15-6.7,15h13.4Z"/>
    <path class="st0" d="M57.2,228.2h3v25.4h15.6v2.6h-18.6s0-28,0-28Z"/>
    <path class="st0" d="M105.4,253.6v2.6h-19.7v-27.9h19.1v2.6h-16.2v9.9h14.4v2.5h-14.4v10.4h16.8Z"/>
    <path class="st0" d="M120.3,256.5c-1.6,0-3.1-.3-4.5-1-1.4-.7-2.4-1.7-3.3-3l1.7-2c1.6,2.3,3.6,3.4,6.1,3.4s5.2-2.1,5.2-6.2v-16.9h-10.2v-2.6h13.1v19.4c0,2.9-.7,5.1-2.1,6.6-1.3,1.5-3.3,2.3-6,2.3h0Z"/>
    <path class="st0" d="M159.7,248.8h-15.6l-3.3,7.4h-3.1l12.8-27.9h2.9l12.8,27.9h-3.1l-3.4-7.4h0ZM158.6,246.3l-6.7-15-6.7,15h13.4Z"/>
    <path class="st0" d="M199.1,228.2v27.9h-2.5l-17.9-22.7v22.7h-3v-27.9h2.4l18,22.7v-22.7h3Z"/>
    <path class="st0" d="M213.1,228.2h11.4c2.9,0,5.6.6,7.8,1.8,2.3,1.2,4,2.8,5.3,4.9,1.2,2.1,1.9,4.5,1.9,7.2s-.6,5.1-1.9,7.3c-1.2,2.1-3,3.8-5.3,4.9-2.3,1.2-4.9,1.8-7.8,1.8h-11.4v-27.9ZM224.3,253.6c2.4,0,4.6-.5,6.4-1.4,1.8-1,3.2-2.3,4.2-4s1.5-3.7,1.5-5.9-.5-4.2-1.5-5.9-2.4-3.1-4.2-4c-1.8-1-4-1.5-6.4-1.5h-8.2v22.8h8.2Z"/>
    <path class="st0" d="M270.1,256.2l-6.4-9c-.7.1-1.5.1-2.2.1h-7.5v8.9h-3v-27.9h10.4c3.6,0,6.4.9,8.4,2.6,2,1.7,3,4.1,3,7s-.5,4-1.6,5.5-2.7,2.6-4.7,3.2l6.8,9.6h-3.2ZM261.4,244.8c2.8,0,4.9-.6,6.3-1.8,1.5-1.2,2.2-2.9,2.2-5.1s-.7-4-2.2-5.2-3.6-1.8-6.3-1.8h-7.4v14h7.4Z"/>
    <path class="st0" d="M302.3,248.8h-15.6l-3.3,7.4h-3.1l12.8-27.9h2.9l12.8,27.9h-3.1l-3.4-7.4h0ZM301.2,246.3l-6.7-15-6.7,15h13.4Z"/>
    <path class="st0" d="M353.7,256.6l-3.9-4c-2.4,2.6-5.5,3.8-9.4,3.8s-3.4-.3-4.8-.9-2.5-1.4-3.3-2.5-1.2-2.3-1.2-3.7.5-3.2,1.6-4.5,2.9-2.7,5.5-4.2c-1.4-1.4-2.3-2.6-2.8-3.5-.5-1-.7-2-.7-3.1,0-1.8.6-3.2,1.9-4.3s3-1.6,5.2-1.6,3.6.5,4.7,1.5c1.2,1,1.8,2.3,1.8,4.1s-.5,2.6-1.4,3.7c-.9,1.1-2.5,2.3-4.8,3.6l7.7,7.9c.9-1.5,1.5-3.3,1.9-5.4l2.3.7c-.5,2.5-1.3,4.6-2.5,6.4l4,4.1-1.8,1.9h0ZM341.7,230.2c-1.4,0-2.5.4-3.3,1-.8.7-1.2,1.6-1.2,2.8s.2,1.6.6,2.4c.4.7,1.3,1.7,2.5,3,2-1.2,3.4-2.2,4.2-3,.8-.8,1.2-1.7,1.2-2.8s-.4-1.9-1.1-2.5c-.7-.6-1.6-.9-2.9-.9h0ZM340.6,254.1c3.1,0,5.6-1.1,7.5-3.1l-8.4-8.6c-2.2,1.2-3.7,2.4-4.6,3.4-.8,1-1.2,2.1-1.2,3.4s.6,2.7,1.9,3.7c1.2.7,2.8,1.2,4.8,1.2h0Z"/>
    <path class="st0" d="M380.7,228.2h3v25.4h15.6v2.6h-18.6v-28Z"/>
    <path class="st0" d="M420.4,256.5c-3.6,0-6.4-1-8.5-3.1-2-2.1-3-5.1-3-9.1v-16h2.9v15.9c0,3.2.7,5.7,2.2,7.3s3.6,2.4,6.3,2.4,4.9-.8,6.4-2.4c1.5-1.6,2.2-4,2.2-7.3v-15.9h2.9v16c0,4-1,7-3,9.1-2,2-4.8,3.1-8.4,3.1h0Z"/>
    <path class="st0" d="M445.7,228.2h3v27.9h-3v-27.9Z"/>
    <path class="st0" d="M470.4,256.5c-2.1,0-4.1-.3-6-1-1.9-.7-3.4-1.6-4.4-2.6l1.2-2.3c1,1,2.3,1.8,4,2.5,1.7.6,3.4.9,5.2.9s4.4-.4,5.6-1.4c1.3-.9,1.9-2.1,1.9-3.6s-.4-2-1-2.7c-.7-.7-1.5-1.2-2.5-1.5-1-.4-2.4-.8-4.1-1.2-2.1-.5-3.8-1.1-5-1.5-1.2-.5-2.3-1.2-3.2-2.2-.9-1-1.3-2.4-1.3-4.1s.4-2.7,1.1-3.9c.8-1.2,1.9-2.1,3.5-2.8,1.5-.7,3.5-1,5.7-1s3.2.2,4.7.7c1.5.4,2.9,1.1,4,1.8l-1,2.4c-1.2-.8-2.4-1.4-3.7-1.8-1.3-.4-2.6-.6-3.9-.6-2.5,0-4.3.5-5.5,1.4s-1.8,2.2-1.8,3.7.3,2,1,2.7,1.5,1.2,2.5,1.6c1,.4,2.4.7,4.1,1.2,2,.5,3.7,1,5,1.5s2.4,1.2,3.2,2.2c.9,1,1.3,2.4,1.3,4.1s-.4,2.7-1.1,3.9c-.8,1.2-1.9,2.1-3.5,2.8-1.8.4-3.7.8-6,.8h0Z"/>
  </g>
  <g>
    <g>
      <path class="st0" d="M419.9,145.8l-10,21.6c-2.7,5.8-5.6,10.3-8.6,13.4-3,3.1-7.6,4.6-14,4.6h-39.6V39c0-3.4.6-6.2,1.8-8.3,1.2-2.1,3.4-3.8,6.7-5l4.6-2v-2.7h-65.5v2.6l5.4,2c3.4,1.2,5.6,2.8,6.7,4.9,1,2,1.5,4.8,1.5,8.2v71.4c3.1-3,7.2-4.6,11.6-4.6,9.5,0,17.3,7.7,17.3,17.2s-4.5,12.1-6.9,14.6c-2.8,3.1-10.5,11.2-21.7,11.2h-.3v24.2c0,3.4-.5,6.1-1.4,8.1s-3.2,3.6-6.8,5l-5.4,2.1v2.6h124.8l2.3-44.7h-2.5Z"/>
      <path class="st0" d="M228,181.9c-1.7-2-3.2-4.9-4.6-8.6l-.4-1c-5.1-2.1-9.9-5-14.3-8.7-10.6-9.1-16.1-21.3-16.1-35.4s2.3-17.9,6.7-25.6l-27.9-81.9h-21.8l-53,151.5c-1.2,3.6-2.7,6.4-4.6,8.4s-4.5,3.6-8,5l-6.4,2.3v2.6h35.4v-2.6l-5.7-2.3c-3.6-1.4-5.6-3.2-6.1-5.4-.4-2.2,0-5.2,1.2-9l12.3-36.2h57l12.1,37c1,3.4,1.1,6.4.4,8.9-.8,2.5-2.9,4.4-6.5,5.8l-3.9,1.3v2.6h65.2v-2.6l-3.1-1c-3.5-1.5-6.2-3.2-7.9-5.1h0ZM116.6,129.9l27.7-79.9,25.9,79.9c.1,0-53.6,0-53.6,0Z"/>
    </g>
    <path class="st0" d="M249.9,90.3c3.5,4.6,6.9,6.9,10,6.9s3.2-1,3.2-3-4.4-3.9-13.2-3.9h0ZM268.9,92.6c0,2-1,3.7-3.1,5s-4.6,1.9-7.5,1.9-5.2-.8-7.7-2.5c-2.6-1.7-4.4-3.8-5.7-6.3-9.3,1.6-16.1,5.6-20.5,12.1s-6.6,13.3-6.6,20.6,3.4,16.3,10.1,22.1c6.7,5.8,14.4,8.7,23,8.7s17.1-3.1,22.9-9.4c5.9-6.2,9.5-13.6,10.9-22.1-1.5-.9-3.9-2.5-6.9-4.8-3.1-2.3-5.6-4-7.7-5-2-1-4.1-1.5-6.2-1.5s-2.9.6-4,1.9c-1.1,1.2-1.6,2.7-1.6,4.4s.9,3.3,2.7,4.9c1.8,1.5,2.7,2.4,2.7,2.5,0,.5-1.1.7-3.3.7h-.9c-5.1,0-7.6-2.4-7.6-7.2s1.3-4.2,4-5.9c2.7-1.6,5.8-2.5,9.4-2.5,6.3,0,14.6,3.1,24.8,9.2,10.2,6.1,17.4,9.1,21.6,9.1s4.3-1.1,6.5-3.3c.5-.5.9-.9,1.2-1.4.4-.5.7-.8.8-1.2l.4-.5c.3,0,.5.2.5.5,0,.5-.8,1.5-2.3,3-3.6,4-6.7,6-9.5,6-5.3,0-11.4-1.8-18.3-5.5-2.5,7.2-8.3,14.6-17.6,22-9.3,7.4-19.4,11.1-30.3,11.1s-16.6-2.9-23.4-8.7c-6.8-5.8-10.2-13.3-10.2-22.6s3.4-17.8,10.1-24.9c6.7-7,14.8-12.1,24.2-15.2-.6-1.7-.9-3.9-.9-6.7,0-8.3,3.2-15,9.5-20.1s12.9-7.7,19.7-7.7,9.5,1,13.8,3.1c4.2,2.1,6.4,4.7,6.4,7.8l-2.3,4.1c-1.4,2.5-2.2,3.7-2.3,3.7-.3,0-.5-.2-.5-.4,0-3.7-2.1-6.9-6.3-9.6-4.2-2.7-8.3-4.1-12.5-4.1-6.8,0-12.2,1.9-16.4,5.8-4.1,3.9-6.1,8.8-6.1,14.8s.6,5.3,1.9,8.1c4.3-.8,8-1.1,10.9-1.1s5,.6,7.1,1.7c2,1.3,3.1,3.1,3.1,5.4h0Z"/>
  </g>
  <g>
    <g>
      <path class="st0" d="M139.8,299.2v-19.4l.9,1h-5.7v-1.9h6.9v20.3h-2.1Z"/>
      <path class="st0" d="M156.1,299.2l8.8-19.4.6.9h-12.6l1.1-1v4.8h-2.1v-5.7h14.9v1.5l-8.5,18.8h-2.3Z"/>
    </g>
    <path class="st0" d="M186.6,299.3c-.4,0-.8-.2-1.1-.5-.3-.3-.4-.7-.4-1.1s.1-.8.4-1.1.7-.4,1.1-.4.8.1,1.1.4c.3.3.4.7.4,1.1s-.1.8-.4,1.1c-.3.3-.7.5-1.1.5Z"/>
    <g>
      <path class="st0" d="M211,299.2v-19.4l.9,1h-5.7v-1.9h6.9v20.3h-2.1Z"/>
      <path class="st0" d="M231.8,299.3c-1.6,0-3-.4-4.2-1.2-1.2-.8-2.2-2-2.9-3.5-.7-1.5-1-3.4-1-5.6s.3-4,1-5.6c.7-1.5,1.7-2.7,2.9-3.5,1.2-.8,2.6-1.2,4.2-1.2s3,.4,4.2,1.2c1.2.8,2.2,2,2.9,3.5.7,1.5,1.1,3.4,1.1,5.6s-.4,4-1.1,5.6c-.7,1.5-1.7,2.7-2.9,3.5-1.2.8-2.6,1.2-4.2,1.2ZM231.8,297.4c1.2,0,2.2-.3,3.1-1,.9-.6,1.6-1.6,2.1-2.8.5-1.2.8-2.8.8-4.6s-.3-3.3-.8-4.6c-.5-1.2-1.2-2.2-2.1-2.8-.9-.6-1.9-1-3.1-1s-2.2.3-3.1,1c-.9.6-1.6,1.6-2.1,2.8-.5,1.2-.8,2.8-.8,4.6s.3,3.3.8,4.6c.5,1.2,1.2,2.2,2.1,2.8.9.6,1.9,1,3.1,1Z"/>
    </g>
    <path class="st0" d="M259.4,299.3c-.4,0-.8-.2-1.1-.5-.3-.3-.4-.7-.4-1.1s.1-.8.4-1.1.7-.4,1.1-.4.8.1,1.1.4c.3.3.4.7.4,1.1s-.1.8-.4,1.1c-.3.3-.7.5-1.1.5Z"/>
    <g>
      <path class="st0" d="M279.9,299.2v-1.5l8.4-8.3c.8-.8,1.4-1.4,1.7-2,.4-.6.6-1.1.8-1.6s.2-1,.2-1.4c0-1.2-.4-2.1-1.2-2.8s-2-1-3.6-1-2.3.2-3.2.6-1.7.9-2.4,1.7l-1.5-1.3c.8-.9,1.8-1.6,3-2.1s2.6-.8,4.1-.8,2.6.2,3.6.7c1,.4,1.8,1.1,2.3,1.9.6.8.8,1.8.8,2.9s0,1.3-.3,1.9c-.2.6-.5,1.3-1,2s-1.2,1.5-2.1,2.4l-7.7,7.6-.6-.8h12.6v1.9h-14.2Z"/>
      <path class="st0" d="M310.6,299.3c-1.6,0-3-.4-4.2-1.2-1.2-.8-2.2-2-2.9-3.5s-1-3.4-1-5.6.3-4,1-5.6,1.7-2.7,2.9-3.5c1.2-.8,2.6-1.2,4.2-1.2s3,.4,4.2,1.2c1.2.8,2.2,2,2.9,3.5s1.1,3.4,1.1,5.6-.4,4-1.1,5.6-1.7,2.7-2.9,3.5c-1.2.8-2.6,1.2-4.2,1.2ZM310.6,297.4c1.2,0,2.2-.3,3.1-1,.9-.6,1.6-1.6,2.1-2.8s.8-2.8.8-4.6-.3-3.3-.8-4.6-1.2-2.2-2.1-2.8c-.9-.6-1.9-1-3.1-1s-2.2.3-3.1,1c-.9.6-1.6,1.6-2.1,2.8-.5,1.2-.8,2.8-.8,4.6s.3,3.3.8,4.6c.5,1.2,1.2,2.2,2.1,2.8.9.6,1.9,1,3.1,1Z"/>
      <path class="st0" d="M327.2,299.2v-1.5l8.4-8.3c.8-.8,1.4-1.4,1.7-2,.4-.6.6-1.1.8-1.6.1-.5.2-1,.2-1.4,0-1.2-.4-2.1-1.2-2.8-.8-.7-2-1-3.6-1s-2.3.2-3.2.6c-.9.4-1.7.9-2.4,1.7l-1.5-1.3c.8-.9,1.8-1.6,3-2.1s2.6-.8,4.1-.8,2.6.2,3.6.7c1,.4,1.8,1.1,2.3,1.9.6.8.8,1.8.8,2.9s0,1.3-.3,1.9c-.2.6-.5,1.3-1,2s-1.2,1.5-2.1,2.4l-7.7,7.6-.6-.8h12.6v1.9h-14.2Z"/>
      <path class="st0" d="M358.1,299.3c-1.8,0-3.3-.4-4.6-1.2-1.2-.8-2.2-2-2.8-3.5-.6-1.5-1-3.3-1-5.5s.4-4.2,1.2-5.8c.8-1.6,1.9-2.7,3.3-3.5,1.4-.8,3-1.2,4.8-1.2s1.8,0,2.6.3c.8.2,1.6.5,2.2.8l-.8,1.7c-.5-.3-1.1-.6-1.8-.7-.7-.1-1.4-.2-2.1-.2-2.2,0-3.9.7-5.2,2.1-1.3,1.4-2,3.5-2,6.2s0,1,0,1.6c0,.6.2,1.3.3,1.9l-.7-.6c.2-1,.6-1.9,1.2-2.6.6-.7,1.4-1.2,2.3-1.6s1.9-.6,3-.6,2.5.3,3.6.8c1,.5,1.8,1.2,2.4,2.1.6.9.9,2,.9,3.2s-.3,2.4-.9,3.3c-.6.9-1.4,1.7-2.5,2.2-1.1.5-2.2.8-3.6.8ZM358,297.6c1,0,1.8-.2,2.6-.5.7-.4,1.3-.9,1.8-1.5.4-.7.6-1.4.6-2.3,0-1.3-.5-2.4-1.4-3.2-.9-.8-2.2-1.2-3.7-1.2s-2,.2-2.7.6-1.4.9-1.8,1.6c-.4.7-.7,1.4-.7,2.3s.2,1.4.6,2.1,1,1.2,1.8,1.6c.8.4,1.8.6,2.9.6Z"/>
    </g>
  </g>
</svg>