<?xml version="1.0" encoding="UTF-8"?><svg id="uuid-c290c6eb-728b-4f53-85f1-684c317e4b6b" xmlns="http://www.w3.org/2000/svg" viewBox="0 0 500 42.69"><g><path d="m261.53,0C261.96,0,262.36.26,262.53.68c.22.56-.05,1.19-.6,1.41-27.74,11.2-72.58,24.43-107.68,24.86-16.77.23-33.56-2.57-49.81-5.26-7.03-1.16-14.31-2.37-21.47-3.31-24.54-3.22-43.43-2.33-59.45,2.82-.57.18-1.18-.13-1.36-.7-.18-.57.13-1.18.7-1.36,16.33-5.25,35.52-6.17,60.39-2.9,7.2.94,14.49,2.15,21.55,3.32,16.16,2.67,32.91,5.41,49.43,5.23,34.8-.42,79.34-13.57,106.9-24.7C261.25.03,261.39,0,261.53,0Z" style="fill:#8c8c4c;"/><path d="m232.26,10.82c.21,0,.42.06.6.18.31.21.49.56.48.93-.16,5.6-2.15,11.1-5.6,15.48-3.45,4.39-8.31,7.58-13.67,9-.37.1-.76,0-1.04-.28-.27-.27-.38-.66-.29-1.04,2.9-11.42,9.68-20.01,19.08-24.2.14-.06.29-.09.44-.09Zm-16.9,22.93c4.17-1.49,7.91-4.17,10.67-7.67,2.79-3.55,4.54-7.89,5.02-12.39-7.43,3.89-12.92,10.91-15.69,20.06Z" style="fill:#8c8c4c;"/><path d="m198.84,2.66c8.71,0,16.73,3.86,22.93,11.13.26.3.33.73.18,1.1-.15.37-.49.63-.89.68-10.06,1.09-20.41-3.07-26.99-10.86-.26-.3-.33-.72-.18-1.09.14-.37.47-.63.86-.68,1.37-.19,2.74-.28,4.08-.28Zm19.8,10.9c-5.95-6.14-13.44-9.15-21.48-8.69,5.61,5.71,13.63,8.94,21.48,8.69Z" style="fill:#8c8c4c;"/><path d="m199.98,20.18c.26,0,.51.09.71.26.29.25.43.63.36,1.01-1,5.57-3.83,10.74-7.97,14.55-4.14,3.81-9.5,6.19-15.08,6.68-.41.02-.74-.13-.96-.43-.22-.3-.28-.69-.15-1.04,3.75-9.78,12.04-17.42,22.74-20.98.11-.04.23-.05.34-.05Zm-20.35,20.11c4.45-.75,8.65-2.8,11.98-5.88,3.32-3.06,5.73-7.08,6.89-11.46-8.59,3.34-15.33,9.53-18.87,17.34Z" style="fill:#8c8c4c;"/><path d="m159.98,7.71h.03c9.79.31,18.24,5.58,23.79,14.83.2.34.21.75.01,1.09-.19.34-.55.55-.94.55h0c-9.85-.02-19.44-6.01-23.86-14.9-.17-.34-.15-.75.06-1.07.2-.31.54-.5.91-.5Zm20.85,14.2c-4.73-6.93-11.35-11.09-18.95-11.9,4.02,6.64,11.28,11.2,18.95,11.9Z" style="fill:#8c8c4c;"/><path d="m160.17,24.99c.71,0,1.42.03,2.12.09.36.03.69.24.86.56.17.32.17.71,0,1.03-2.59,4.81-6.72,8.73-11.63,11.04-4.91,2.31-10.55,2.98-15.85,1.88-.36-.07-.66-.33-.79-.67-.13-.34-.08-.73.13-1.03,5.67-7.8,15.76-12.91,25.15-12.91Zm.18,2.17h-.12c-8.07,0-16.98,4.22-22.36,10.61,4.32.54,8.78-.15,12.73-2.01,3.97-1.87,7.38-4.88,9.75-8.59Z" style="fill:#8c8c4c;"/><path d="m118.8,6.07c.08,0,.16,0,.24.03,9.62,2.16,18.1,9.15,22.12,18.25.16.35.11.76-.12,1.07-.23.31-.61.48-.99.44-11-1.16-19.54-8.22-22.3-18.42-.1-.37,0-.76.27-1.03.21-.22.49-.33.78-.33Zm19.5,17.35c-3.72-7.03-10.33-12.47-17.89-14.73,2.79,7.74,9.41,13.19,17.89,14.73Z" style="fill:#8c8c4c;"/><path d="m110.67,21.61c2.31,0,4.67.24,7.07.73.38.08.69.36.82.73s.03.78-.23,1.07c-7.35,8.05-18.93,11.68-29.49,9.26-.37-.09-.67-.36-.79-.72-.12-.36-.04-.76.21-1.05,5.69-6.53,13.62-10.01,22.41-10.01Zm4.64,2.5c-9.33-1.33-17.92,1.36-24.1,7.53,8.63,1.34,17.72-1.51,24.1-7.53Z" style="fill:#8c8c4c;"/><path d="m69.96,2.32s.09,0,.14,0c9.42,1.18,18.02,6.76,23.01,14.92.21.34.21.78,0,1.12-.21.35-.54.55-1,.52-9.64-.62-18.72-6.5-23.12-14.99-.19-.36-.16-.79.07-1.12.2-.29.54-.46.89-.46Zm20.03,14.16c-4.29-5.88-10.87-10.14-17.94-11.63,3.95,6.14,10.65,10.49,17.94,11.63Z" style="fill:#8c8c4c;"/><path d="m64.41,14.68c.94,0,1.88.05,2.83.13.41.04.76.31.91.69.15.38.07.82-.21,1.12-6.76,7.42-16.7,11.61-26.73,11.2-.41-.02-.78-.27-.95-.65-.16-.38-.09-.82.18-1.14,6.38-7.31,14.99-11.35,23.96-11.35Zm.27,2.17c-7.67-.11-15.11,3.05-20.92,8.81,7.72-.3,15.27-3.48,20.92-8.81Z" style="fill:#8c8c4c;"/><path d="m24.14,4.68c8.13,0,16.07,3.71,21.69,10.24.26.3.33.73.19,1.1-.15.37-.49.64-.89.68-9.04,1.02-18.65-2.97-24.4-10.13-.25-.31-.31-.73-.16-1.1.15-.37.49-.62.89-.66.89-.09,1.79-.14,2.68-.14Zm18.51,10.01c-5.13-5.1-11.8-7.92-18.81-7.84,4.85,5.02,11.83,7.92,18.81,7.84Z" style="fill:#8c8c4c;"/><path d="m19.28,18.64c1.44,0,2.85.16,4.21.49.35.08.63.34.76.67.12.34.08.71-.13,1.01-5.17,7.27-14.5,11.09-23.22,9.53-.36-.06-.67-.31-.81-.65-.14-.34-.1-.72.1-1.03,4.14-6.1,11.93-10.02,19.09-10.02Zm2.01,2.28c-6.41-.81-13.83,2.26-18.22,7.52,6.81.59,13.77-2.28,18.22-7.52Z" style="fill:#8c8c4c;"/><path d="m171.39,33.31c.11,0,.21.02.32.05h0s0,0,0,0h0s0,0,0,0h0s0,0,0,0h0s0,0,0,0l.08.03c.57.19.87.8.69,1.37-.18.56-.78.87-1.35.69h0s0,0,0,0h0s0,0,0,0h0s0,0,0,0h0s0,0,0,0l-.08-.03c-.57-.19-.87-.8-.69-1.37.15-.45.57-.74,1.03-.74Z" style="fill:#8c8c4c;"/><path d="m167.93,30.35c.12,0,.24.02.35.06,0,0,0,0,.01,0,.56.19.91.82.71,1.39-.19.57-.84.85-1.41.66-.57-.19-.91-.82-.72-1.38.15-.45.6-.73,1.06-.73Z" style="fill:#8c8c4c;"/><path d="m228.43,2.32c.12,0,.24.02.36.06.57.19.91.82.72,1.38-.19.57-.84.86-1.41.67,0,0,0,0-.01,0-.56-.19-.91-.82-.71-1.39.15-.45.59-.72,1.05-.72Z" style="fill:#8c8c4c;"/><path d="m187.42,13.57c.12,0,.24.02.35.06,0,0,0,0,.01,0,.56.19.91.82.71,1.39-.19.57-.85.85-1.41.66-.57-.19-.91-.82-.72-1.38.15-.45.6-.73,1.05-.73Z" style="fill:#8c8c4c;"/><path d="m106.69,10.28c.12,0,.24.02.35.06,0,0,0,0,.01,0,.56.19.91.82.71,1.39-.19.57-.84.85-1.41.66-.57-.19-.91-.82-.72-1.38.15-.45.6-.73,1.05-.73Z" style="fill:#8c8c4c;"/><path d="m77.29,23.7c.12,0,.24.02.35.06,0,0,.01,0,.02,0,.56.2.9.83.7,1.39-.19.57-.84.85-1.41.66-.56-.19-.9-.82-.71-1.38.15-.45.6-.72,1.06-.72Z" style="fill:#8c8c4c;"/><path d="m85.13,22.01c.11,0,.22.02.33.05h0s.04,0,.05.02h0c.55.2.88.82.69,1.37-.18.56-.81.85-1.38.68h0s-.03,0-.03-.01c-.56-.19-.91-.82-.71-1.39.15-.45.59-.72,1.05-.72Z" style="fill:#8c8c4c;"/><path d="m50.1,6.07c.12,0,.24.02.35.06,0,0,0,0,.01,0,.56.19.91.82.71,1.39-.19.57-.84.85-1.41.66-.57-.19-.91-.82-.72-1.38.15-.45.6-.73,1.05-.73Z" style="fill:#8c8c4c;"/><path d="m16.3,12.39c.11,0,.22.02.33.05h0s.02,0,.03,0h0c.56.2.91.83.71,1.39-.19.55-.82.84-1.38.67h0s0,0,0,0c0,0-.02,0-.03,0-.01,0-.02,0-.03-.01h0c-.55-.21-.87-.82-.68-1.38.15-.45.59-.72,1.05-.72Z" style="fill:#8c8c4c;"/></g><g><path d="m238.47,0C238.61,0,238.75.03,238.88.08c27.56,11.13,72.1,24.28,106.9,24.7,16.49.18,33.27-2.56,49.43-5.23,7.05-1.16,14.35-2.37,21.55-3.32,24.86-3.27,44.06-2.35,60.39,2.9.57.18.88.79.7,1.36-.19.57-.8.88-1.36.7-16.02-5.15-34.91-6.04-59.45-2.82-7.16.94-14.44,2.14-21.47,3.31-16.25,2.68-33.14,5.45-49.81,5.26-35.1-.43-79.95-13.66-107.68-24.86-.55-.22-.82-.85-.6-1.41C237.64.26,238.04,0,238.47,0Z" style="fill:#8c8c4c;"/><path d="m267.74,10.82c.15,0,.3.03.44.09,9.4,4.18,16.18,12.77,19.08,24.2.1.37-.01.77-.29,1.04-.27.27-.67.38-1.04.28-5.37-1.42-10.22-4.62-13.67-9-3.45-4.38-5.44-9.88-5.6-15.48-.01-.37.17-.72.48-.93.18-.12.39-.18.6-.18Zm16.9,22.93c-2.77-9.16-8.27-16.18-15.69-20.06.48,4.5,2.23,8.84,5.02,12.39,2.76,3.51,6.5,6.19,10.67,7.67Z" style="fill:#8c8c4c;"/><path d="m301.15,2.66c1.35,0,2.71.09,4.08.28.39.05.72.32.86.68.14.37.07.79-.18,1.09-6.57,7.79-16.92,11.95-26.98,10.86-.4-.04-.74-.3-.89-.68-.15-.37-.08-.8.18-1.1,6.19-7.26,14.22-11.13,22.93-11.13Zm1.68,2.22c-8.03-.46-15.53,2.55-21.48,8.69,7.96.26,15.87-2.98,21.48-8.69Z" style="fill:#8c8c4c;"/><path d="m300.02,20.18c.12,0,.23.02.34.05,10.71,3.55,19,11.2,22.74,20.98.13.35.08.74-.15,1.04-.23.3-.56.45-.96.43-5.58-.49-10.94-2.86-15.08-6.68-4.14-3.81-6.97-8.98-7.97-14.55-.07-.38.07-.76.36-1.01.2-.17.45-.26.71-.26Zm20.35,20.11c-3.54-7.81-10.28-14-18.87-17.34,1.16,4.38,3.56,8.4,6.88,11.46,3.34,3.08,7.54,5.13,11.99,5.88Z" style="fill:#8c8c4c;"/><path d="m340.02,7.71c.37,0,.71.19.91.5.21.32.23.73.06,1.07-4.43,8.89-14.01,14.88-23.86,14.9h0c-.39,0-.75-.21-.94-.55-.19-.34-.19-.76.01-1.09,5.55-9.25,14-14.52,23.79-14.83h.03Zm-20.85,14.2c7.67-.71,14.92-5.26,18.95-11.9-7.59.81-14.21,4.97-18.95,11.9Z" style="fill:#8c8c4c;"/><path d="m339.83,24.99c9.4,0,19.49,5.1,25.15,12.91.21.3.27.68.13,1.03-.13.34-.43.6-.79.67-5.31,1.1-10.94.43-15.85-1.88-4.91-2.31-9.04-6.23-11.62-11.04-.17-.32-.17-.71,0-1.03.17-.32.5-.53.86-.56.7-.06,1.41-.09,2.12-.09Zm22.3,12.77c-5.41-6.42-14.42-10.61-22.48-10.61,2.37,3.71,5.78,6.73,9.75,8.59,3.95,1.86,8.41,2.55,12.74,2.01Z" style="fill:#8c8c4c;"/><path d="m381.2,6.07c.29,0,.58.12.78.33.26.27.36.67.27,1.03-2.76,10.2-11.3,17.26-22.3,18.42-.38.04-.76-.13-.99-.44-.23-.31-.27-.72-.12-1.07,4.02-9.1,12.5-16.09,22.12-18.25.08-.02.16-.03.24-.03Zm-19.5,17.35c8.47-1.53,15.1-6.99,17.89-14.73-7.56,2.26-14.17,7.7-17.89,14.73Z" style="fill:#8c8c4c;"/><path d="m389.33,21.61c8.79,0,16.72,3.48,22.41,10.01.25.29.33.69.21,1.05-.12.36-.42.63-.79.72-10.58,2.42-22.14-1.22-29.49-9.26-.26-.29-.35-.7-.23-1.07s.43-.65.82-.73c2.4-.49,4.77-.73,7.07-.73Zm19.46,10.03c-6.18-6.17-14.77-8.86-24.1-7.53,6.38,6.02,15.47,8.87,24.1,7.53Z" style="fill:#8c8c4c;"/><path d="m430.04,2.32c.35,0,.69.17.89.46.23.33.26.76.07,1.12-4.4,8.49-13.47,14.38-23.12,14.99-.45.03-.79-.18-1-.52-.21-.35-.21-.78,0-1.12,4.99-8.16,13.59-13.74,23.01-14.92.05,0,.09,0,.14,0Zm-20.03,14.16c7.29-1.15,13.98-5.49,17.94-11.63-7.07,1.49-13.65,5.76-17.94,11.63Z" style="fill:#8c8c4c;"/><path d="m435.59,14.68c8.98,0,17.59,4.04,23.96,11.35.27.31.34.76.18,1.14-.17.38-.54.64-.95.65-10,.4-19.97-3.78-26.73-11.2-.28-.3-.36-.74-.21-1.12.15-.38.5-.65.91-.69.95-.09,1.89-.13,2.83-.13Zm20.65,10.98c-5.81-5.76-13.18-8.84-20.92-8.81,5.65,5.33,13.2,8.51,20.92,8.81Z" style="fill:#8c8c4c;"/><path d="m475.86,4.68c.89,0,1.79.04,2.68.14.4.04.74.29.89.66.16.37.1.79-.16,1.1-5.75,7.16-15.35,11.14-24.4,10.13-.4-.04-.74-.31-.89-.68-.15-.37-.08-.8.19-1.1,5.61-6.53,13.56-10.24,21.69-10.24Zm.29,2.17c-.1,0-.19,0-.29,0-6.79,0-13.46,2.82-18.51,7.85,6.97.09,13.96-2.82,18.81-7.84Z" style="fill:#8c8c4c;"/><path d="m480.72,18.64c7.16,0,14.95,3.92,19.09,10.02.21.3.24.69.1,1.03-.14.34-.45.58-.81.65-8.72,1.57-18.05-2.26-23.22-9.53-.21-.29-.26-.67-.13-1.01.13-.34.41-.59.76-.67,1.35-.33,2.77-.49,4.21-.49Zm16.21,9.8c-4.39-5.26-11.81-8.34-18.22-7.52,4.45,5.24,11.42,8.12,18.22,7.52Z" style="fill:#8c8c4c;"/><path d="m328.61,33.31c.45,0,.88.29,1.03.74.19.57-.12,1.18-.68,1.37t0,0l-.08.03c-.58.19-1.18-.12-1.37-.69-.19-.57.12-1.18.68-1.37t0,0l.08-.03c.12-.04.23-.06.34-.06Z" style="fill:#8c8c4c;"/><path d="m332.07,30.35c.46,0,.9.28,1.05.73.19.57-.15,1.19-.72,1.38-.56.19-1.22-.1-1.41-.66s.15-1.19.71-1.39c0,0,0,0,.01,0,.12-.04.23-.06.35-.06Zm.34,2.11l-.35-1.02.35,1.02Z" style="fill:#8c8c4c;"/><path d="m271.57,2.32c.46,0,.9.27,1.05.72.19.57-.15,1.19-.71,1.39,0,0,0,0-.01,0-.56.19-1.22-.1-1.41-.67-.19-.57.15-1.19.72-1.38.12-.04.24-.06.36-.06Zm-.01,1.09l-.35-1.02.35,1.02Z" style="fill:#8c8c4c;"/><path d="m312.58,13.57c.46,0,.9.28,1.05.73.19.57-.15,1.19-.72,1.38-.56.19-1.22-.1-1.41-.66-.19-.57.15-1.19.71-1.39,0,0,0,0,.01,0,.12-.04.23-.06.35-.06Zm.34,2.11l-.35-1.02.35,1.02Z" style="fill:#8c8c4c;"/><path d="m393.31,10.28c.46,0,.9.28,1.05.73.19.57-.15,1.19-.72,1.38-.56.19-1.22-.1-1.41-.66-.19-.57.15-1.19.71-1.39,0,0,0,0,.01,0,.12-.04.23-.06.35-.06Zm.34,2.11l-.35-1.02.35,1.02Z" style="fill:#8c8c4c;"/><path d="m422.71,23.7c.46,0,.9.28,1.06.72.19.57-.15,1.19-.71,1.38-.56.19-1.22-.09-1.41-.66-.2-.56.14-1.19.7-1.39,0,0,.01,0,.02,0,.12-.04.23-.06.35-.06Zm-.01,1.08,0,0,.36,1.02l-.36-1.02.36,1.02Z" style="fill:#8c8c4c;"/><path d="m414.87,22.01c.46,0,.9.27,1.05.72.19.56-.14,1.17-.69,1.38h0s-.03,0-.03.01c-.56.19-1.22-.1-1.41-.67-.19-.56.14-1.17.69-1.37h0s.03-.01.05-.02h0c.11-.03.22-.05.33-.05Zm-.01,1.08l-.35-1.03.35,1.03Z" style="fill:#8c8c4c;"/><path d="m449.9,6.07c.46,0,.9.28,1.06.73.19.57-.15,1.19-.72,1.38-.56.19-1.22-.1-1.41-.66-.19-.57.15-1.19.71-1.39,0,0,0,0,.01,0,.12-.04.23-.06.35-.06Zm.34,2.11l-.35-1.02.35,1.02Z" style="fill:#8c8c4c;"/><path d="m483.7,12.39c.46,0,.9.28,1.06.73.19.57-.15,1.19-.72,1.38-.56.19-1.22-.1-1.41-.66-.19-.57.15-1.19.71-1.39,0,0,0,0,.01,0,.12-.04.23-.06.35-.06Zm.34,2.11l-.35-1.02.35,1.02Z" style="fill:#8c8c4c;"/></g></svg>